<svg width="693" height="711" viewBox="0 0 693 711" fill="none" xmlns="http://www.w3.org/2000/svg">
<path d="M647.109 449.636H419.958V314.774H647.109V449.636ZM421.344 448.214H645.723V316.196H421.344V448.214Z" fill="#E0E0E0"/>
<path d="M600.248 386.684H450.38V391.192H600.248V386.684Z" fill="#F0F0F0"/>
<path d="M610.574 403.493H450.38V408.413H610.574V403.493Z" fill="#F0F0F0"/>
<path d="M610.574 420.5H450.38V425.42H610.574V420.5Z" fill="#F0F0F0"/>
<path d="M502.757 362.269H450.38V373.972H502.757V362.269Z" fill="#F0F0F0"/>
<path d="M646.416 315.485H420.692V336.957H646.416V315.485Z" fill="#E0E0E0"/>
<path d="M629.05 333.743C628.759 333.459 631.669 329.861 635.536 325.709C639.403 321.557 642.799 318.414 643.076 318.684C643.353 318.955 640.457 322.566 636.59 326.733C632.723 330.899 629.327 334.028 629.05 333.743Z" fill="white"/>
<path d="M643.104 333.743C642.827 334.028 639.445 330.899 635.564 326.733C631.684 322.566 628.787 318.969 629.078 318.684C629.369 318.4 632.737 321.528 636.618 325.709C640.499 329.89 643.368 333.459 643.104 333.743Z" fill="white"/>
<path d="M367.595 48.4191L141.871 48.4191V181.874H367.595V48.4191Z" fill="#E6E6E6"/>
<path d="M321.441 119.633L171.572 119.633V124.141L321.441 124.141V119.633Z" fill="#F0F0F0"/>
<path d="M331.766 136.441H171.572V141.361H331.766V136.441Z" fill="#F0F0F0"/>
<path d="M331.766 153.448H171.572V158.368H331.766V153.448Z" fill="#F0F0F0"/>
<path d="M223.949 95.2171H171.572V106.92H223.949V95.2171Z" fill="#F0F0F0"/>
<path d="M367.595 48.4191L141.871 48.4191V69.8913L367.595 69.8913V48.4191Z" fill="#E0E0E0"/>
<path d="M349.466 66.578C349.175 66.3078 352.085 62.6959 355.952 58.5437C359.819 54.3914 363.215 51.2488 363.492 51.5332C363.769 51.8176 360.873 55.4153 357.006 59.5675C353.139 63.7198 349.743 66.8339 349.466 66.578Z" fill="white"/>
<path d="M363.492 66.578C363.215 66.8624 359.833 63.734 355.952 59.5676C352.072 55.4011 349.175 51.8177 349.466 51.5333C349.757 51.2489 353.125 54.3773 357.006 58.5437C360.887 62.7102 363.783 66.3078 363.492 66.578Z" fill="white"/>
<path d="M282.106 296.33H54.9962L54.9962 161.454H282.106V296.33ZM56.3822 294.908H280.72V162.876H56.3822L56.3822 294.908Z" fill="#E0E0E0"/>
<path d="M235.26 233.379H85.3914V237.886H235.26V233.379Z" fill="#F0F0F0"/>
<path d="M245.585 250.187H85.3914V255.107H245.585V250.187Z" fill="#F0F0F0"/>
<path d="M245.585 267.194H85.3914V272.114H245.585V267.194Z" fill="#F0F0F0"/>
<path d="M137.768 208.963H85.3914V220.666H137.768V208.963Z" fill="#F0F0F0"/>
<path d="M281.413 162.165H55.6894V183.637H281.413V162.165Z" fill="#E0E0E0"/>
<path d="M544.213 327.231H277.685V572.042H544.213V327.231Z" fill="#E6E6E6"/>
<path d="M291.087 250.116H82.3003L82.3003 472.673H291.087V250.116Z" fill="#F0F0F0"/>
<path d="M291.087 250.116H82.3003V274.361H291.087V250.116Z" fill="#E0E0E0"/>
<path d="M99.5425 261.989C99.5045 262.868 99.2157 263.717 98.7119 264.429C98.2082 265.141 97.5116 265.686 96.7087 265.996C95.9058 266.306 95.032 266.367 94.1955 266.172C93.3591 265.977 92.597 265.534 92.0037 264.898C91.4105 264.262 91.0122 263.462 90.8583 262.596C90.7045 261.73 90.8018 260.837 91.1382 260.028C91.4747 259.218 92.0354 258.528 92.7509 258.042C93.4663 257.557 94.305 257.297 95.1628 257.297C96.349 257.326 97.4754 257.837 98.2961 258.716C99.1167 259.595 99.5648 260.772 99.5425 261.989Z" fill="white"/>
<path d="M117.325 261.989C117.29 262.873 117.002 263.726 116.498 264.443C115.993 265.16 115.295 265.708 114.488 266.021C113.682 266.334 112.804 266.396 111.964 266.201C111.124 266.005 110.358 265.561 109.762 264.922C109.166 264.283 108.766 263.479 108.612 262.609C108.458 261.739 108.557 260.842 108.896 260.03C109.236 259.217 109.8 258.524 110.52 258.038C111.24 257.553 112.084 257.295 112.945 257.297C114.131 257.326 115.258 257.837 116.079 258.716C116.899 259.595 117.347 260.772 117.325 261.989Z" fill="white"/>
<path d="M135.107 261.989C135.071 262.873 134.784 263.726 134.279 264.443C133.775 265.16 133.076 265.708 132.27 266.021C131.464 266.334 130.586 266.396 129.746 266.201C128.905 266.005 128.14 265.561 127.544 264.922C126.948 264.283 126.548 263.479 126.394 262.609C126.24 261.739 126.339 260.842 126.678 260.03C127.017 259.217 127.582 258.524 128.302 258.038C129.022 257.553 129.865 257.295 130.727 257.297C131.913 257.326 133.04 257.837 133.86 258.716C134.681 259.595 135.129 260.772 135.107 261.989Z" fill="white"/>
<path d="M617.297 97.0941L350.769 97.0941V369.635H617.297V97.0941Z" fill="#F0F0F0"/>
<path d="M617.297 97.0941L350.769 97.0941V129.018H617.297V97.0941Z" fill="#E0E0E0"/>
<path d="M373.471 112.736C373.422 113.897 373.042 115.017 372.378 115.958C371.714 116.899 370.795 117.619 369.736 118.029C368.676 118.439 367.523 118.52 366.419 118.263C365.315 118.006 364.308 117.422 363.525 116.584C362.741 115.745 362.215 114.689 362.011 113.546C361.808 112.403 361.936 111.224 362.38 110.156C362.824 109.087 363.564 108.176 364.508 107.535C365.452 106.894 366.559 106.552 367.692 106.55C369.256 106.588 370.743 107.26 371.826 108.419C372.909 109.578 373.501 111.131 373.471 112.736Z" fill="white"/>
<path d="M395.19 108.555C395.958 109.411 396.464 110.481 396.644 111.63C396.825 112.779 396.671 113.957 396.204 115.017C395.736 116.077 394.975 116.973 394.014 117.592C393.054 118.212 391.937 118.527 390.803 118.5C389.669 118.473 388.568 118.104 387.637 117.44C386.706 116.775 385.986 115.844 385.567 114.762C385.148 113.681 385.049 112.497 385.281 111.358C385.513 110.218 386.067 109.175 386.874 108.356C388.003 107.253 389.513 106.655 391.072 106.692C392.631 106.73 394.112 107.4 395.19 108.555Z" fill="white"/>
<path d="M420.29 112.736C420.242 113.897 419.861 115.017 419.197 115.958C418.533 116.899 417.615 117.619 416.555 118.029C415.496 118.439 414.342 118.52 413.238 118.263C412.134 118.006 411.127 117.422 410.344 116.584C409.56 115.745 409.034 114.689 408.831 113.546C408.627 112.403 408.755 111.224 409.199 110.156C409.643 109.087 410.383 108.176 411.327 107.535C412.272 106.894 413.379 106.552 414.511 106.55C416.076 106.588 417.562 107.26 418.646 108.419C419.729 109.578 420.32 111.131 420.29 112.736Z" fill="white"/>
<path d="M559.723 644.351C559.723 644.55 463.479 644.721 344.796 644.721C226.112 644.721 129.827 644.55 129.827 644.351C129.827 644.152 226.057 643.981 344.796 643.981C463.534 643.981 559.723 644.166 559.723 644.351Z" fill="#263238"/>
<path d="M465.946 470.27C444.532 454.926 439.681 426.444 440.527 400.833C440.665 396.567 440.208 392.045 442.19 388.306C444.172 384.566 448.801 381.992 452.529 383.784C455.62 385.277 456.965 388.974 458.697 392.031C461.009 396.103 464.396 399.421 468.468 401.601C471.116 403.023 474.4 403.876 477.02 402.398C480.624 400.364 481.039 395.288 481.012 391.022C481.012 383.087 480.965 375.162 480.873 367.246C480.624 362.995 481.045 358.731 482.12 354.618C483.409 350.58 486.278 346.84 490.201 345.702C494.123 344.565 499.016 346.911 499.903 351.063C500.055 352.822 500.097 354.589 500.028 356.353C500.138 358.131 500.942 360.079 502.564 360.619C504.186 361.16 505.877 359.922 507.124 358.671C511.393 354.405 514.303 348.845 517.006 343.356C519.709 337.867 522.356 332.222 526.237 327.543C530.118 322.865 535.481 319.154 541.483 318.798C547.484 318.443 553.735 322.225 555.232 328.198C556.729 334.17 553.333 340.27 549.688 345.119C544.187 352.317 537.703 358.663 530.436 363.961C529.018 364.756 527.886 365.997 527.207 367.502C526.306 370.346 528.926 373.19 531.656 374.086C534.747 375.138 538.101 374.811 541.358 375.209C544.615 375.607 548.08 377.057 549.314 380.186C551.005 384.537 547.456 389.088 543.978 392.074C536.992 398.046 529.06 402.745 520.526 405.967C517.477 407.104 514.276 408.114 511.809 410.304C509.341 412.494 507.872 416.319 509.355 419.319C510.838 422.32 514.65 423.273 517.852 422.661C521.053 422.05 523.894 420.286 526.944 419.106C532.64 416.902 539.986 417.3 543.576 422.348C544.688 424.087 545.392 426.067 545.632 428.132C545.873 430.197 545.643 432.292 544.962 434.25C543.575 438.149 541.44 441.722 538.683 444.759C529.605 455.887 517.811 464.342 504.504 469.26C491.296 473.953 479.057 475.232 465.932 470.298" fill="#070789"/>
<path d="M549.133 322.31C549.133 322.31 549.009 322.453 548.731 322.709L547.498 323.832C546.417 324.827 544.823 326.278 542.813 328.198C537.115 333.626 531.824 339.487 526.985 345.731C523.894 349.67 520.693 354.135 517.283 358.984C513.874 363.833 510.353 369.066 506.86 374.626C503.137 380.489 499.727 386.556 496.646 392.799C495.038 396.055 493.624 399.454 492.169 402.924L487.872 413.518C482.209 426.862 477.276 440.52 473.097 454.429C469.732 465.808 467.411 477.487 466.167 489.31C465.361 497.289 465.232 505.325 465.779 513.328C466.001 516.172 466.209 518.347 466.403 519.826C466.486 520.537 466.542 521.106 466.597 521.518V522.101C466.537 521.917 466.496 521.726 466.472 521.533C466.403 521.12 466.32 520.566 466.209 519.855C465.96 518.433 465.696 516.186 465.447 513.342C464.778 505.325 464.824 497.262 465.585 489.253C466.752 477.379 469.022 465.647 472.363 454.215C476.506 440.268 481.426 426.575 487.096 413.205L491.504 402.653C492.959 399.198 494.386 395.771 496.008 392.5C499.111 386.238 502.549 380.157 506.306 374.285C509.854 368.597 513.43 363.449 516.798 358.643C520.166 353.836 523.423 349.343 526.5 345.418C531.388 339.19 536.75 333.37 542.536 328.013C544.587 326.121 546.223 324.699 547.332 323.747L548.621 322.68C548.779 322.539 548.95 322.415 549.133 322.31Z" fill="#070789"/>
<path d="M496.189 392.472C495.993 391.886 495.858 391.281 495.787 390.666C495.565 389.486 495.315 387.822 495.024 385.661C494.428 381.395 493.819 375.55 493.167 369.08C492.516 362.61 491.781 356.751 491.171 352.528C490.853 350.423 490.575 348.731 490.381 347.551C490.23 346.947 490.151 346.326 490.146 345.702C490.384 346.272 490.556 346.869 490.659 347.48C490.963 348.646 491.31 350.324 491.698 352.443C492.488 356.709 493.264 362.51 493.916 368.995C494.567 375.479 495.121 381.167 495.551 385.59C495.759 387.58 495.939 389.272 496.078 390.623C496.185 391.233 496.223 391.853 496.189 392.472Z" fill="#070789"/>
<path d="M549.522 382.262C548.847 382.413 548.16 382.498 547.47 382.518C546.084 382.646 544.116 382.817 541.677 383.101C536.798 383.641 530.09 384.637 522.73 386.059C515.371 387.481 508.759 389.088 504.005 390.325C501.635 390.95 499.723 391.519 498.461 391.903C497.788 392.149 497.091 392.32 496.382 392.415C497.023 392.085 497.691 391.813 498.378 391.605C499.681 391.135 501.566 390.481 503.922 389.784C508.649 388.362 515.26 386.67 522.647 385.22C528.905 383.992 535.219 383.09 541.566 382.518C544.019 382.305 546.001 382.219 547.387 382.191C548.099 382.141 548.814 382.165 549.522 382.262Z" fill="#070789"/>
<path d="M473.042 453.22C472.895 453.014 472.773 452.789 472.682 452.552L471.767 450.575C470.977 448.854 469.91 446.309 468.635 443.195C466.057 436.938 462.772 428.178 459.279 418.452C455.787 408.725 452.571 399.966 450.132 393.638C448.94 390.567 447.956 388.05 447.221 386.173L446.445 384.139C446.337 383.905 446.263 383.656 446.223 383.4C446.371 383.605 446.492 383.83 446.584 384.068L447.498 386.045C448.275 387.765 449.356 390.311 450.631 393.425C453.209 399.682 456.494 408.441 459.986 418.168C463.479 427.894 466.694 436.654 469.134 442.981C470.326 446.053 471.31 448.57 472.031 450.447C472.349 451.257 472.613 451.869 472.821 452.48C472.928 452.715 473.003 452.964 473.042 453.22Z" fill="#070789"/>
<path d="M543.839 429.8C543.617 429.93 543.38 430.031 543.132 430.098L541.081 430.809L533.5 433.326C527.096 435.459 518.254 438.502 508.552 441.858C498.85 445.214 489.965 448.2 483.52 450.191C480.305 451.201 477.685 451.969 475.87 452.48L473.777 453.035C473.533 453.114 473.283 453.167 473.028 453.191C473.25 453.061 473.488 452.96 473.735 452.893L475.787 452.182L483.368 449.665C489.771 447.532 498.614 444.489 508.316 441.133C518.018 437.777 526.888 434.791 533.333 432.8C536.563 431.79 539.168 431.022 540.998 430.511L543.091 429.956C543.334 429.877 543.585 429.824 543.839 429.8Z" fill="#070789"/>
<path d="M514.954 84.865L507.816 87.4815L504.753 77.9114C499.126 60.2644 481.191 50.8934 464.712 56.8516C448.232 62.8098 439.459 82.1632 445.086 99.8102L448.149 109.38L440.983 112.011C438.251 113.098 436.032 115.224 434.788 117.947C433.544 120.669 433.37 123.779 434.303 126.629L454.164 188.898C454.577 190.31 455.261 191.621 456.177 192.756C457.093 193.89 458.222 194.824 459.497 195.502C460.772 196.179 462.166 196.587 463.598 196.701C465.03 196.815 466.469 196.633 467.83 196.165L541.801 169.019C544.57 167.934 546.82 165.789 548.079 163.036C549.338 160.283 549.507 157.137 548.551 154.259L528.676 91.9892C528.253 90.5821 527.558 89.2768 526.632 88.1512C525.707 87.0256 524.57 86.1029 523.289 85.438C522.009 84.7731 520.611 84.3797 519.179 84.2812C517.747 84.1828 516.31 84.3813 514.954 84.865ZM458.572 94.819C457.054 90.2305 457.327 85.2176 459.332 80.8306C461.337 76.4435 464.919 73.0227 469.327 71.2849C471.504 70.5207 473.809 70.2143 476.103 70.3839C478.398 70.5535 480.636 71.1956 482.684 72.2719C484.731 73.3482 486.547 74.8366 488.022 76.6484C489.496 78.4602 490.6 80.5582 491.267 82.8173L494.317 92.3874L461.621 104.389L458.572 94.819ZM500.152 150.078L505.224 165.976C505.318 166.295 505.288 166.638 505.14 166.935C504.993 167.231 504.741 167.458 504.434 167.568L497.324 170.171C497.041 170.251 496.739 170.216 496.481 170.073C496.222 169.93 496.028 169.69 495.938 169.403L490.824 153.576C488.004 153.418 485.298 152.381 483.069 150.602C480.839 148.823 479.193 146.387 478.35 143.622C477.145 139.966 477.364 135.973 478.964 132.48C480.563 128.986 483.417 126.263 486.929 124.88C488.663 124.272 490.499 124.029 492.327 124.164C494.154 124.3 495.937 124.811 497.568 125.668C499.199 126.526 500.645 127.711 501.82 129.154C502.995 130.596 503.874 132.267 504.407 134.066C505.298 136.875 505.372 139.89 504.619 142.742C503.866 145.594 502.318 148.158 500.166 150.121L500.152 150.078Z" fill="#070789"/>
<path d="M507.498 87.3109C507.498 87.51 494.261 92.615 477.796 98.6869C461.33 104.759 447.9 109.636 447.83 109.494C447.761 109.352 461.067 104.204 477.546 98.1181C494.026 92.0319 507.428 87.126 507.498 87.3109Z" fill="#263238"/>
<path d="M523.215 89.9273C523.276 90.0507 523.327 90.1791 523.367 90.3112C523.478 90.5956 523.603 90.9654 523.769 91.4204C524.13 92.4585 524.629 93.8947 525.252 95.6864L530.575 111.584C532.792 118.325 535.439 126.316 538.378 135.19C539.764 139.64 541.399 144.276 542.924 149.154C543.74 151.667 544.092 154.314 543.963 156.96C543.846 158.336 543.464 159.675 542.841 160.899C542.175 162.119 541.285 163.196 540.221 164.07C538.08 165.674 535.703 166.917 533.18 167.753L526.042 170.384L512.529 175.347L489.646 183.708L474.192 189.282L470.034 190.704L468.925 191.074C468.807 191.128 468.68 191.162 468.551 191.174C468.551 191.174 468.662 191.174 468.898 191.003L469.979 190.562L474.137 188.955L489.507 183.154L512.349 174.622L525.834 169.616L532.972 166.971C535.423 166.169 537.731 164.964 539.805 163.402C540.795 162.591 541.624 161.591 542.245 160.458C542.832 159.326 543.185 158.082 543.284 156.804C543.412 154.255 543.073 151.703 542.286 149.282C540.789 144.447 539.209 139.768 537.782 135.318C534.899 126.43 532.238 118.41 530.131 111.67C528.024 104.929 526.25 99.5116 525.031 95.7006C524.448 93.8378 524.005 92.3874 523.645 91.3351L523.312 90.1975C523.27 90.1113 523.238 90.0207 523.215 89.9273Z" fill="#263238"/>
<path d="M484.185 70.3179C484.185 70.3179 483.45 69.9482 482.092 69.3794C480.156 68.6162 478.108 68.1931 476.035 68.1281C472.962 68.0199 469.904 68.6125 467.082 69.8629C463.649 71.4199 460.714 73.9384 458.613 77.1293C456.498 80.3111 455.364 84.0711 455.356 87.9223C455.385 91.0787 455.852 94.2149 456.742 97.2364C457.463 99.8244 458.211 101.886 458.71 103.323C459.004 104.052 459.245 104.803 459.431 105.569C459.037 104.887 458.708 104.168 458.447 103.422C457.878 102 457.061 99.9809 456.257 97.3786C455.27 94.3254 454.733 91.1382 454.663 87.9223C454.626 83.9256 455.787 80.0139 457.989 76.7169C460.163 73.4095 463.218 70.8131 466.79 69.2372C469.701 67.9799 472.855 67.4253 476.007 67.6161C478.125 67.7269 480.206 68.2328 482.147 69.1092C482.666 69.3549 483.167 69.6401 483.644 69.9624C483.841 70.0513 484.024 70.1712 484.185 70.3179Z" fill="#263238"/>
<path d="M484.823 125.961C485.044 125.823 485.276 125.704 485.516 125.605C486.21 125.284 486.928 125.023 487.664 124.823C488.832 124.469 490.037 124.259 491.254 124.198C492.909 124.106 494.564 124.363 496.119 124.951C499.667 126.231 502.924 129.942 504.532 134.905C505.303 137.568 505.303 140.404 504.532 143.067C503.677 145.958 502.144 148.59 500.069 150.732L500.152 150.348C501.995 155.538 504.005 161.17 506.084 167.042L506.209 167.398L505.862 167.526L502.688 168.607L495.758 170.981L495.412 171.095L495.301 170.74C493.402 164.853 491.323 159.364 489.757 153.974L490.062 154.216C487.352 153.985 484.769 152.942 482.633 151.216C480.7 149.689 479.116 147.747 477.99 145.528C476.974 143.559 476.468 141.355 476.521 139.129C476.585 136.853 477.139 134.619 478.143 132.589C479.147 130.558 480.576 128.78 482.328 127.383C483.049 126.782 483.859 126.302 484.726 125.961C483.943 126.437 483.184 126.955 482.453 127.511C480.528 129.181 479.053 131.331 478.17 133.753C477.412 135.58 477.057 137.556 477.131 139.541C477.206 141.525 477.707 143.467 478.6 145.229C479.707 147.364 481.253 149.228 483.132 150.689C485.169 152.33 487.633 153.319 490.214 153.533H490.45L490.519 153.747C492.044 159.037 494.137 164.568 496.063 170.484L495.606 170.256L502.536 167.881L505.696 166.786L505.474 167.27C503.409 161.397 501.413 155.752 499.584 150.561V150.348L499.75 150.177C501.765 148.124 503.267 145.602 504.13 142.826C504.865 140.278 504.865 137.567 504.13 135.019C502.619 130.241 499.501 126.615 496.119 125.335C494.622 124.743 493.024 124.467 491.42 124.525C490.223 124.553 489.033 124.72 487.872 125.022C485.807 125.548 484.837 126.032 484.823 125.961Z" fill="#263238"/>
<path d="M441.981 536.549L303.534 535.895C295.539 535.85 287.888 532.551 282.261 526.722C276.635 520.894 273.494 513.013 273.527 504.81L274.996 148.727C275.012 144.663 275.809 140.642 277.341 136.894C278.873 133.146 281.11 129.745 283.923 126.885C286.737 124.024 290.073 121.761 293.74 120.224C297.407 118.686 301.333 117.906 305.294 117.926L443.728 118.581C451.723 118.622 459.375 121.917 465.004 127.743C470.633 133.569 473.778 141.448 473.749 149.651L472.279 505.72C472.263 509.785 471.466 513.808 469.935 517.557C468.403 521.307 466.167 524.71 463.354 527.573C460.54 530.435 457.205 532.701 453.538 534.242C449.871 535.782 445.944 536.566 441.981 536.549Z" fill="#455A64"/>
<path d="M443.519 130.824H416.686C415.811 130.841 414.947 131.034 414.145 131.393C413.342 131.752 412.616 132.27 412.009 132.917C411.401 133.564 410.924 134.328 410.604 135.164C410.284 136.001 410.128 136.893 410.145 137.792V142.783C410.161 143.681 410.005 144.573 409.685 145.408C409.365 146.244 408.887 147.006 408.28 147.652C407.672 148.298 406.946 148.815 406.143 149.172C405.341 149.53 404.478 149.722 403.603 149.737L351.295 149.495C349.525 149.446 347.847 148.679 346.628 147.362C345.409 146.045 344.75 144.286 344.795 142.47V137.479C344.839 135.666 344.182 133.908 342.966 132.592C341.75 131.275 340.075 130.506 338.308 130.454H328.869L305.377 130.34C299.789 130.306 294.416 132.545 290.433 136.567C286.451 140.589 284.184 146.066 284.129 151.798L282.743 499.364C282.731 502.208 283.264 505.027 284.313 507.659C285.362 510.292 286.906 512.686 288.857 514.707C290.809 516.727 293.128 518.333 295.685 519.434C298.241 520.534 300.983 521.107 303.755 521.12L441.912 521.774C444.686 521.787 447.435 521.24 450.002 520.163C452.57 519.086 454.906 517.501 456.876 515.497C458.847 513.494 460.413 511.113 461.486 508.488C462.56 505.864 463.119 503.049 463.131 500.203L464.517 152.637C464.551 146.888 462.357 141.361 458.42 137.271C454.482 133.18 449.123 130.862 443.519 130.824Z" fill="white"/>
<path d="M424.933 475.403L322.203 474.948C321.136 474.948 320.277 473.753 320.29 472.303L320.401 444.73C320.401 443.308 321.274 442.086 322.342 442.086L425.072 442.569C425.663 442.674 426.192 443.009 426.549 443.505C426.905 444 427.061 444.617 426.985 445.228L426.888 472.772C426.888 474.237 426.001 475.417 424.933 475.403Z" fill="#070789"/>
<path d="M351.003 463.278V455.73H351.917V462.467H355.426V463.278H351.003ZM359.023 463.396C358.512 463.396 358.063 463.274 357.677 463.031C357.294 462.788 356.994 462.447 356.778 462.01C356.564 461.573 356.458 461.062 356.458 460.477C356.458 459.887 356.564 459.372 356.778 458.933C356.994 458.493 357.294 458.151 357.677 457.908C358.063 457.665 358.512 457.543 359.023 457.543C359.534 457.543 359.981 457.665 360.364 457.908C360.75 458.151 361.049 458.493 361.263 458.933C361.479 459.372 361.588 459.887 361.588 460.477C361.588 461.062 361.479 461.573 361.263 462.01C361.049 462.447 360.75 462.788 360.364 463.031C359.981 463.274 359.534 463.396 359.023 463.396ZM359.023 462.614C359.411 462.614 359.73 462.515 359.981 462.316C360.231 462.117 360.417 461.855 360.537 461.531C360.658 461.207 360.718 460.855 360.718 460.477C360.718 460.098 360.658 459.746 360.537 459.419C360.417 459.092 360.231 458.828 359.981 458.627C359.73 458.425 359.411 458.325 359.023 458.325C358.634 458.325 358.315 458.425 358.064 458.627C357.814 458.828 357.628 459.092 357.508 459.419C357.387 459.746 357.327 460.098 357.327 460.477C357.327 460.855 357.387 461.207 357.508 461.531C357.628 461.855 357.814 462.117 358.064 462.316C358.315 462.515 358.634 462.614 359.023 462.614ZM365.2 465.518C364.78 465.518 364.419 465.464 364.117 465.356C363.814 465.251 363.563 465.111 363.361 464.936C363.162 464.764 363.004 464.58 362.886 464.383L363.579 463.897C363.657 464 363.757 464.118 363.877 464.251C363.997 464.386 364.162 464.502 364.371 464.601C364.582 464.701 364.859 464.752 365.2 464.752C365.657 464.752 366.034 464.641 366.332 464.42C366.629 464.199 366.777 463.853 366.777 463.381V462.231H366.704C366.64 462.334 366.549 462.462 366.431 462.614C366.316 462.764 366.148 462.898 365.93 463.016C365.714 463.132 365.421 463.189 365.053 463.189C364.596 463.189 364.185 463.081 363.822 462.865C363.461 462.649 363.174 462.334 362.963 461.922C362.754 461.509 362.65 461.008 362.65 460.418C362.65 459.838 362.752 459.333 362.956 458.903C363.16 458.471 363.443 458.137 363.807 457.901C364.171 457.662 364.591 457.543 365.067 457.543C365.436 457.543 365.728 457.605 365.945 457.728C366.163 457.848 366.33 457.986 366.446 458.14C366.564 458.293 366.655 458.418 366.718 458.516H366.807V457.617H367.647V463.44C367.647 463.926 367.537 464.322 367.315 464.627C367.097 464.934 366.802 465.158 366.431 465.301C366.062 465.446 365.652 465.518 365.2 465.518ZM365.171 462.408C365.519 462.408 365.814 462.328 366.055 462.168C366.296 462.009 366.479 461.779 366.604 461.479C366.73 461.18 366.792 460.821 366.792 460.403C366.792 459.995 366.731 459.635 366.608 459.323C366.485 459.011 366.303 458.767 366.062 458.59C365.822 458.413 365.524 458.325 365.171 458.325C364.802 458.325 364.495 458.418 364.249 458.605C364.006 458.791 363.823 459.042 363.7 459.357C363.58 459.671 363.52 460.02 363.52 460.403C363.52 460.796 363.581 461.144 363.704 461.446C363.829 461.746 364.013 461.982 364.257 462.154C364.502 462.323 364.807 462.408 365.171 462.408ZM369.239 463.278V457.617H370.109V463.278H369.239ZM369.681 456.674C369.512 456.674 369.366 456.616 369.243 456.5C369.123 456.385 369.062 456.246 369.062 456.084C369.062 455.922 369.123 455.783 369.243 455.667C369.366 455.552 369.512 455.494 369.681 455.494C369.851 455.494 369.996 455.552 370.116 455.667C370.239 455.783 370.301 455.922 370.301 456.084C370.301 456.246 370.239 456.385 370.116 456.5C369.996 456.616 369.851 456.674 369.681 456.674ZM372.572 459.872V463.278H371.702V457.617H372.542V458.502H372.616C372.749 458.214 372.95 457.983 373.22 457.809C373.491 457.632 373.839 457.543 374.267 457.543C374.65 457.543 374.986 457.622 375.273 457.779C375.561 457.934 375.784 458.17 375.944 458.487C376.103 458.801 376.183 459.199 376.183 459.681V463.278H375.314V459.74C375.314 459.295 375.198 458.949 374.967 458.701C374.736 458.45 374.419 458.325 374.016 458.325C373.739 458.325 373.491 458.385 373.272 458.505C373.056 458.626 372.885 458.801 372.76 459.032C372.634 459.263 372.572 459.543 372.572 459.872ZM381.723 455.73V463.278H380.809V455.73H381.723ZM384.308 459.872V463.278H383.438V457.617H384.278V458.502H384.352C384.485 458.214 384.686 457.983 384.956 457.809C385.227 457.632 385.575 457.543 386.003 457.543C386.386 457.543 386.722 457.622 387.009 457.779C387.296 457.934 387.52 458.17 387.68 458.487C387.839 458.801 387.919 459.199 387.919 459.681V463.278H387.05V459.74C387.05 459.295 386.934 458.949 386.703 458.701C386.472 458.45 386.155 458.325 385.752 458.325C385.475 458.325 385.227 458.385 385.008 458.505C384.792 458.626 384.621 458.801 384.496 459.032C384.37 459.263 384.308 459.543 384.308 459.872Z" fill="#E8E8E3"/>
<path d="M342.694 232.995L307.046 232.829L307.017 239.541L342.664 239.707L342.694 232.995Z" fill="#070789"/>
<path opacity="0.1" d="M342.694 232.995L307.046 232.829L307.017 239.541L342.664 239.707L342.694 232.995Z" fill="black"/>
<path d="M447.192 274.204C447.472 274.175 447.747 274.108 448.01 274.005C448.394 273.851 448.727 273.59 448.972 273.25C449.218 272.91 449.364 272.507 449.396 272.085C449.396 269.824 449.396 266.525 449.396 262.288C449.396 260.169 449.396 257.794 449.396 255.178C449.396 254.538 449.396 253.87 449.396 253.201C449.486 252.553 449.349 251.892 449.008 251.338C448.817 251.073 448.569 250.856 448.283 250.706C447.997 250.555 447.68 250.475 447.359 250.471H445.197H425.169L309.244 250.03C308.947 250.025 308.654 250.093 308.388 250.23C308.123 250.366 307.893 250.566 307.719 250.812C307.385 251.369 307.257 252.03 307.359 252.675C307.359 254.097 307.359 255.519 307.359 256.941C307.359 259.785 307.359 262.629 307.359 265.473C307.359 266.895 307.359 268.317 307.359 269.739C307.301 270.401 307.301 271.068 307.359 271.73C307.432 272.014 307.567 272.277 307.754 272.499C307.942 272.721 308.176 272.895 308.44 273.01C308.713 273.121 309.005 273.175 309.299 273.166H316.354L347.137 273.337L399.251 273.664L434.386 273.948L443.935 274.062H446.416C446.984 274.062 447.262 274.062 447.262 274.062H446.416H443.935H434.386H399.251L347.137 273.891L316.354 273.763H309.299C308.911 273.78 308.524 273.712 308.163 273.564C307.798 273.405 307.473 273.161 307.214 272.853C306.954 272.545 306.767 272.181 306.666 271.787C306.586 271.414 306.558 271.031 306.583 270.649V269.597C306.583 268.175 306.583 266.753 306.583 265.331C306.583 262.487 306.583 259.643 306.583 256.799C306.583 255.377 306.583 253.955 306.583 252.533C306.556 252.154 306.556 251.774 306.583 251.395C306.635 250.977 306.792 250.58 307.04 250.244C307.279 249.9 307.596 249.621 307.962 249.431C308.329 249.24 308.736 249.143 309.147 249.149L425.072 249.803L445.1 249.945H447.262C447.643 249.945 448.018 250.04 448.356 250.22C448.693 250.401 448.984 250.663 449.202 250.983C449.593 251.601 449.751 252.344 449.646 253.073C449.646 253.742 449.646 254.41 449.646 255.05C449.646 257.638 449.646 260.013 449.646 262.16C449.646 266.426 449.549 269.696 449.521 271.972C449.487 272.409 449.332 272.828 449.074 273.178C448.816 273.528 448.466 273.795 448.066 273.948C447.803 274.115 447.501 274.204 447.192 274.204Z" fill="#E0E0E0"/>
<path d="M382.951 257.169H317.754V263.44H382.951V257.169Z" fill="#070789"/>
<path opacity="0.2" d="M382.951 257.169H317.754V263.44H382.951V257.169Z" fill="white"/>
<path d="M342.45 294.225L306.803 294.059L306.773 300.77L342.421 300.936L342.45 294.225Z" fill="#070789"/>
<path opacity="0.1" d="M342.45 294.225L306.803 294.059L306.773 300.77L342.421 300.936L342.45 294.225Z" fill="black"/>
<path d="M446.291 335.436C446.571 335.4 446.849 335.348 447.123 335.279C447.51 335.153 447.866 334.943 448.168 334.663C448.469 334.383 448.708 334.041 448.869 333.658C449.088 333.084 449.173 332.466 449.119 331.852C449.119 331.17 449.119 330.43 449.119 329.605C449.119 327.956 449.119 326.079 449.119 323.917V314.888C449.185 314.234 449.044 313.576 448.717 313.011C448.375 312.431 447.837 312.001 447.206 311.802C446.516 311.676 445.813 311.637 445.113 311.688H425.169L309.646 311.247C309.024 311.249 308.425 311.482 307.958 311.903C307.491 312.324 307.19 312.905 307.109 313.537C307.109 314.888 307.109 316.381 307.109 317.803C307.109 320.647 307.109 323.491 307.109 326.335C307.109 327.757 307.109 329.179 307.109 330.601C307.058 331.265 307.086 331.934 307.192 332.592C307.365 333.168 307.722 333.669 308.204 334.014C308.716 334.347 309.318 334.506 309.923 334.469H311.849H315.855L346.527 334.625L398.46 334.952L433.471 335.236L442.993 335.35H445.474H446.305H445.474H442.993H433.471H398.46L346.499 335.293L315.827 335.18H309.798C309.048 335.225 308.304 335.021 307.677 334.597C307.047 334.148 306.587 333.49 306.375 332.734C306.25 332.011 306.213 331.276 306.264 330.544C306.264 329.122 306.264 327.7 306.264 326.278C306.264 323.434 306.264 320.59 306.264 317.746C306.264 316.324 306.264 314.902 306.264 313.48C306.365 312.667 306.751 311.919 307.351 311.378C307.95 310.836 308.722 310.537 309.521 310.536L425.044 311.19L444.988 311.347C445.731 311.3 446.477 311.353 447.206 311.503C447.926 311.745 448.534 312.251 448.911 312.925C449.269 313.552 449.425 314.279 449.354 315.001C449.354 315.67 449.354 316.324 449.354 316.978C449.354 319.552 449.354 321.912 449.354 324.088C449.354 326.264 449.354 328.098 449.354 329.776C449.354 330.587 449.354 331.34 449.354 332.037C449.405 332.673 449.305 333.312 449.063 333.9C448.883 334.292 448.623 334.64 448.3 334.92C447.977 335.2 447.599 335.405 447.192 335.521C446.889 335.547 446.585 335.518 446.291 335.436Z" fill="#E0E0E0"/>
<path d="M342.182 358.113L306.534 357.947L306.505 364.659L342.152 364.825L342.182 358.113Z" fill="#070789"/>
<path opacity="0.1" d="M342.182 358.113L306.534 357.947L306.505 364.659L342.152 364.825L342.182 358.113Z" fill="black"/>
<path d="M446.014 399.298C446.295 399.264 446.572 399.212 446.846 399.141C447.231 399.016 447.586 398.807 447.887 398.53C448.188 398.253 448.429 397.914 448.592 397.534C448.81 396.96 448.895 396.342 448.842 395.728C448.842 395.032 448.842 394.306 448.842 393.468C448.842 391.832 448.842 389.941 448.842 387.78V378.75C448.908 378.096 448.767 377.438 448.44 376.873C448.09 376.304 447.555 375.881 446.929 375.678C446.239 375.547 445.536 375.504 444.836 375.55H424.892L309.369 375.109C308.747 375.111 308.148 375.344 307.681 375.765C307.214 376.186 306.913 376.767 306.832 377.399C306.832 378.821 306.832 380.243 306.832 381.665C306.832 384.509 306.832 387.353 306.832 390.197C306.832 391.619 306.832 393.041 306.832 394.463C306.781 395.123 306.809 395.787 306.915 396.439C307.081 397.02 307.439 397.522 307.927 397.861C308.436 398.202 309.04 398.362 309.646 398.316H315.675L346.347 398.487L398.281 398.814L433.291 399.099L442.813 399.212H445.294C445.848 399.212 446.125 399.212 446.125 399.212C446.125 399.212 445.848 399.212 445.294 399.212H442.813H433.291H398.281L346.347 399.056L315.675 398.928H309.646C308.896 398.98 308.15 398.775 307.525 398.345C306.895 397.897 306.434 397.239 306.222 396.482C306.098 395.76 306.061 395.024 306.112 394.292C306.112 392.87 306.112 391.448 306.112 390.026C306.112 387.182 306.112 384.338 306.112 381.494C306.112 380.072 306.112 378.65 306.112 377.157C306.21 376.345 306.593 375.598 307.19 375.056C307.788 374.514 308.557 374.214 309.355 374.214L424.878 374.868L444.822 375.024C445.565 374.977 446.311 375.03 447.04 375.181C447.76 375.422 448.367 375.929 448.745 376.603C449.103 377.229 449.259 377.956 449.188 378.679C449.188 379.347 449.188 380.015 449.188 380.655C449.188 383.229 449.188 385.59 449.188 387.765C449.188 389.941 449.188 391.775 449.188 393.453C449.188 394.264 449.188 395.017 449.188 395.714C449.242 396.35 449.142 396.99 448.897 397.577C448.717 397.969 448.457 398.317 448.134 398.597C447.811 398.877 447.433 399.082 447.026 399.198C446.701 399.312 446.355 399.346 446.014 399.298Z" fill="#E0E0E0"/>
<path d="M381.56 320.173L316.363 319.869L316.335 326.14L381.532 326.444L381.56 320.173Z" fill="#070789"/>
<path opacity="0.2" d="M381.56 320.173L316.363 319.869L316.335 326.14L381.532 326.444L381.56 320.173Z" fill="white"/>
<path d="M322.258 387.694C322.217 388.266 322.014 388.813 321.672 389.267C321.331 389.722 320.868 390.063 320.339 390.25C319.81 390.436 319.24 390.46 318.699 390.316C318.157 390.173 317.669 389.871 317.294 389.445C316.919 389.02 316.673 388.491 316.589 387.924C316.504 387.357 316.583 386.777 316.816 386.256C317.05 385.735 317.427 385.296 317.902 384.993C318.377 384.69 318.927 384.536 319.486 384.551C320.258 384.596 320.982 384.95 321.501 385.539C322.02 386.127 322.292 386.901 322.258 387.694Z" fill="#070789"/>
<path d="M331.087 387.737C331.115 388.138 331.061 388.54 330.93 388.919C330.8 389.298 330.594 389.645 330.327 389.939C330.06 390.233 329.737 390.467 329.377 390.627C329.018 390.787 328.631 390.87 328.239 390.87C327.847 390.87 327.46 390.787 327.101 390.627C326.741 390.467 326.418 390.233 326.151 389.939C325.884 389.645 325.678 389.298 325.548 388.919C325.417 388.54 325.364 388.138 325.391 387.737C325.364 387.336 325.417 386.934 325.548 386.555C325.678 386.176 325.884 385.829 326.151 385.535C326.418 385.241 326.741 385.007 327.101 384.846C327.46 384.686 327.847 384.604 328.239 384.604C328.631 384.604 329.018 384.686 329.377 384.846C329.737 385.007 330.06 385.241 330.327 385.535C330.594 385.829 330.8 386.176 330.93 386.555C331.061 386.934 331.115 387.336 331.087 387.737Z" fill="#070789"/>
<path d="M339.93 387.779C339.889 388.351 339.686 388.898 339.344 389.353C339.003 389.807 338.54 390.149 338.011 390.335C337.482 390.522 336.912 390.545 336.371 390.402C335.829 390.259 335.341 389.956 334.966 389.531C334.591 389.105 334.345 388.576 334.261 388.01C334.176 387.443 334.255 386.863 334.488 386.342C334.722 385.821 335.099 385.381 335.574 385.078C336.048 384.775 336.599 384.622 337.158 384.637C337.929 384.684 338.651 385.04 339.169 385.628C339.687 386.215 339.961 386.988 339.93 387.779Z" fill="#070789"/>
<path d="M348.759 387.822C348.718 388.394 348.514 388.941 348.173 389.396C347.832 389.85 347.368 390.191 346.84 390.378C346.311 390.564 345.741 390.588 345.199 390.445C344.658 390.302 344.17 389.999 343.794 389.573C343.419 389.148 343.174 388.619 343.089 388.052C343.004 387.486 343.084 386.906 343.317 386.384C343.551 385.863 343.928 385.424 344.403 385.121C344.877 384.818 345.428 384.664 345.987 384.679C346.758 384.727 347.48 385.083 347.998 385.67C348.516 386.258 348.789 387.03 348.759 387.822Z" fill="#070789"/>
<path d="M357.588 387.851C357.55 388.423 357.348 388.972 357.008 389.428C356.669 389.885 356.206 390.228 355.677 390.417C355.149 390.606 354.578 390.631 354.035 390.489C353.493 390.348 353.003 390.046 352.627 389.621C352.25 389.196 352.004 388.667 351.918 388.1C351.832 387.532 351.911 386.951 352.144 386.43C352.377 385.908 352.755 385.468 353.23 385.164C353.705 384.86 354.256 384.707 354.816 384.722C355.584 384.77 356.304 385.124 356.822 385.708C357.34 386.292 357.614 387.061 357.588 387.851Z" fill="#070789"/>
<path d="M366.43 387.893C366.392 388.463 366.193 389.009 365.856 389.464C365.52 389.919 365.061 390.264 364.537 390.455C364.012 390.646 363.444 390.675 362.903 390.54C362.363 390.404 361.872 390.109 361.493 389.691C361.113 389.273 360.861 388.751 360.767 388.187C360.673 387.624 360.742 387.046 360.965 386.522C361.188 385.999 361.555 385.553 362.021 385.241C362.487 384.929 363.032 384.763 363.589 384.765C364.37 384.794 365.107 385.14 365.639 385.727C366.172 386.313 366.456 387.092 366.43 387.893Z" fill="#070789"/>
<path d="M375.259 387.936C375.286 388.337 375.233 388.739 375.102 389.118C374.971 389.497 374.766 389.844 374.499 390.138C374.232 390.432 373.908 390.666 373.549 390.826C373.19 390.986 372.802 391.069 372.411 391.069C372.019 391.069 371.632 390.986 371.272 390.826C370.913 390.666 370.59 390.432 370.323 390.138C370.056 389.844 369.85 389.497 369.719 389.118C369.589 388.739 369.535 388.337 369.563 387.936C369.535 387.535 369.589 387.133 369.719 386.754C369.85 386.375 370.056 386.028 370.323 385.734C370.59 385.44 370.913 385.206 371.272 385.045C371.632 384.885 372.019 384.803 372.411 384.803C372.802 384.803 373.19 384.885 373.549 385.045C373.908 385.206 374.232 385.44 374.499 385.734C374.766 386.028 374.971 386.375 375.102 386.754C375.233 387.133 375.286 387.535 375.259 387.936Z" fill="#070789"/>
<path d="M384.088 387.979C384.05 388.548 383.851 389.095 383.514 389.55C383.178 390.005 382.719 390.349 382.195 390.54C381.67 390.731 381.102 390.761 380.561 390.625C380.021 390.489 379.53 390.194 379.151 389.776C378.771 389.359 378.519 388.836 378.425 388.273C378.331 387.71 378.4 387.131 378.623 386.607C378.846 386.084 379.213 385.639 379.679 385.326C380.145 385.014 380.69 384.849 381.247 384.85C382.027 384.88 382.765 385.226 383.297 385.812C383.83 386.398 384.114 387.177 384.088 387.979Z" fill="#070789"/>
<path d="M392.917 388.021C392.879 388.594 392.677 389.143 392.337 389.599C391.998 390.055 391.535 390.399 391.006 390.588C390.478 390.776 389.907 390.802 389.364 390.66C388.822 390.518 388.332 390.216 387.956 389.791C387.579 389.367 387.333 388.838 387.247 388.27C387.161 387.703 387.24 387.122 387.473 386.6C387.706 386.078 388.084 385.638 388.559 385.335C389.034 385.031 389.585 384.877 390.145 384.893C390.913 384.941 391.633 385.294 392.151 385.879C392.669 386.463 392.943 387.232 392.917 388.021Z" fill="#070789"/>
<g opacity="0.2">
<path d="M322.258 387.694C322.217 388.266 322.014 388.813 321.672 389.267C321.331 389.722 320.868 390.063 320.339 390.25C319.81 390.436 319.24 390.46 318.699 390.316C318.157 390.173 317.669 389.871 317.294 389.445C316.919 389.02 316.673 388.491 316.589 387.924C316.504 387.357 316.583 386.777 316.816 386.256C317.05 385.735 317.427 385.296 317.902 384.993C318.377 384.69 318.927 384.536 319.486 384.551C320.258 384.596 320.982 384.95 321.501 385.539C322.02 386.127 322.292 386.901 322.258 387.694Z" fill="white"/>
<path d="M331.087 387.737C331.114 388.137 331.061 388.54 330.93 388.919C330.799 389.297 330.594 389.645 330.327 389.938C330.06 390.232 329.737 390.467 329.377 390.627C329.018 390.787 328.631 390.87 328.239 390.87C327.847 390.87 327.46 390.787 327.101 390.627C326.741 390.467 326.418 390.232 326.151 389.938C325.884 389.645 325.678 389.297 325.548 388.919C325.417 388.54 325.363 388.137 325.391 387.737C325.363 387.336 325.417 386.933 325.548 386.554C325.678 386.176 325.884 385.829 326.151 385.535C326.418 385.241 326.741 385.006 327.101 384.846C327.46 384.686 327.847 384.603 328.239 384.603C328.631 384.603 329.018 384.686 329.377 384.846C329.737 385.006 330.06 385.241 330.327 385.535C330.594 385.829 330.799 386.176 330.93 386.554C331.061 386.933 331.114 387.336 331.087 387.737Z" fill="white"/>
<path d="M339.93 387.779C339.889 388.351 339.685 388.898 339.344 389.353C339.003 389.807 338.539 390.149 338.011 390.335C337.482 390.522 336.912 390.545 336.371 390.402C335.829 390.259 335.341 389.956 334.966 389.531C334.59 389.105 334.345 388.576 334.26 388.01C334.176 387.443 334.255 386.863 334.488 386.342C334.722 385.82 335.099 385.381 335.574 385.078C336.048 384.775 336.599 384.622 337.158 384.637C337.929 384.684 338.651 385.04 339.169 385.628C339.687 386.215 339.96 386.988 339.93 387.779Z" fill="white"/>
<path d="M348.759 387.822C348.718 388.394 348.514 388.941 348.173 389.396C347.832 389.85 347.368 390.191 346.84 390.378C346.311 390.564 345.741 390.588 345.199 390.445C344.658 390.302 344.169 389.999 343.794 389.573C343.419 389.148 343.174 388.619 343.089 388.052C343.004 387.485 343.084 386.905 343.317 386.384C343.551 385.863 343.928 385.424 344.403 385.121C344.877 384.818 345.428 384.664 345.987 384.679C346.758 384.727 347.48 385.083 347.998 385.67C348.516 386.258 348.789 387.03 348.759 387.822Z" fill="white"/>
<path d="M357.588 387.85C357.549 388.423 357.348 388.972 357.008 389.428C356.669 389.885 356.206 390.228 355.677 390.417C355.149 390.606 354.578 390.631 354.035 390.489C353.493 390.348 353.003 390.046 352.627 389.621C352.25 389.196 352.004 388.667 351.918 388.1C351.832 387.532 351.911 386.951 352.144 386.43C352.377 385.908 352.755 385.467 353.23 385.164C353.705 384.86 354.256 384.707 354.816 384.722C355.584 384.77 356.304 385.124 356.822 385.708C357.34 386.292 357.614 387.061 357.588 387.85Z" fill="white"/>
<path d="M366.43 387.893C366.392 388.463 366.193 389.009 365.856 389.464C365.52 389.919 365.061 390.264 364.537 390.455C364.012 390.646 363.444 390.675 362.903 390.54C362.363 390.404 361.872 390.109 361.493 389.691C361.113 389.273 360.861 388.75 360.767 388.187C360.673 387.624 360.742 387.046 360.965 386.522C361.188 385.999 361.555 385.553 362.021 385.241C362.487 384.929 363.032 384.763 363.589 384.765C364.369 384.794 365.107 385.14 365.639 385.727C366.172 386.313 366.456 387.092 366.43 387.893Z" fill="white"/>
<path d="M375.259 387.936C375.286 388.337 375.233 388.739 375.102 389.118C374.971 389.497 374.766 389.844 374.499 390.138C374.232 390.432 373.908 390.666 373.549 390.826C373.19 390.986 372.802 391.069 372.411 391.069C372.019 391.069 371.631 390.986 371.272 390.826C370.913 390.666 370.59 390.432 370.323 390.138C370.056 389.844 369.85 389.497 369.719 389.118C369.589 388.739 369.535 388.337 369.562 387.936C369.535 387.535 369.589 387.133 369.719 386.754C369.85 386.375 370.056 386.028 370.323 385.734C370.59 385.44 370.913 385.206 371.272 385.045C371.631 384.885 372.019 384.803 372.411 384.803C372.802 384.803 373.19 384.885 373.549 385.045C373.908 385.206 374.232 385.44 374.499 385.734C374.766 386.028 374.971 386.375 375.102 386.754C375.233 387.133 375.286 387.535 375.259 387.936Z" fill="white"/>
<path d="M384.088 387.978C384.05 388.548 383.851 389.094 383.514 389.55C383.178 390.005 382.719 390.349 382.194 390.54C381.67 390.731 381.102 390.761 380.561 390.625C380.02 390.489 379.53 390.194 379.151 389.776C378.771 389.358 378.519 388.836 378.425 388.273C378.331 387.71 378.4 387.131 378.623 386.607C378.845 386.084 379.213 385.639 379.679 385.326C380.145 385.014 380.69 384.849 381.247 384.85C382.027 384.88 382.765 385.226 383.297 385.812C383.83 386.398 384.114 387.177 384.088 387.978Z" fill="white"/>
<path d="M392.917 388.021C392.878 388.594 392.677 389.143 392.337 389.599C391.998 390.055 391.535 390.399 391.006 390.588C390.478 390.776 389.907 390.802 389.364 390.66C388.822 390.518 388.332 390.216 387.956 389.792C387.579 389.367 387.333 388.838 387.247 388.27C387.161 387.703 387.24 387.122 387.473 386.6C387.706 386.078 388.084 385.638 388.559 385.335C389.034 385.031 389.585 384.877 390.145 384.893C390.913 384.941 391.633 385.294 392.151 385.879C392.669 386.463 392.943 387.232 392.917 388.021Z" fill="white"/>
</g>
<path d="M380.373 182.741C381.336 182.306 382.153 181.59 382.722 180.683C383.292 179.775 383.588 178.716 383.575 177.636C383.611 176.935 383.507 176.233 383.27 175.574C383.033 174.915 382.668 174.312 382.197 173.802C381.725 173.293 381.158 172.887 380.529 172.609C379.899 172.332 379.222 172.189 378.537 172.189C377.852 172.189 377.175 172.332 376.545 172.609C375.916 172.887 375.349 173.293 374.877 173.802C374.406 174.312 374.041 174.915 373.804 175.574C373.567 176.233 373.463 176.935 373.499 177.636C373.478 178.726 373.772 179.798 374.344 180.717C374.916 181.636 375.741 182.36 376.714 182.798C368.953 183.993 369.299 192.638 369.299 192.638L387.65 192.724C387.65 192.724 388.08 183.922 380.373 182.741Z" fill="#070789"/>
<path opacity="0.1" d="M380.373 182.741C381.336 182.306 382.153 181.59 382.722 180.683C383.292 179.775 383.588 178.716 383.575 177.636C383.611 176.935 383.507 176.233 383.27 175.574C383.033 174.915 382.668 174.312 382.197 173.802C381.725 173.293 381.158 172.887 380.529 172.609C379.899 172.332 379.222 172.189 378.537 172.189C377.852 172.189 377.175 172.332 376.545 172.609C375.916 172.887 375.349 173.293 374.877 173.802C374.406 174.312 374.041 174.915 373.804 175.574C373.567 176.233 373.463 176.935 373.499 177.636C373.478 178.726 373.772 179.798 374.344 180.717C374.916 181.636 375.741 182.36 376.714 182.798C368.953 183.993 369.299 192.638 369.299 192.638L387.65 192.724C387.65 192.724 388.08 183.922 380.373 182.741Z" fill="#070789"/>
<path d="M410.193 198.3L344.788 197.995L344.753 206.015L410.157 206.32L410.193 198.3Z" fill="#070789"/>
<path opacity="0.2" d="M410.193 198.3L344.788 197.995L344.753 206.015L410.157 206.32L410.193 198.3Z" fill="white"/>
<path d="M169.744 239.863H169.093L167.208 240.005C166.188 240.068 165.173 240.206 164.172 240.418C163.524 240.511 162.881 240.639 162.246 240.801L160.097 241.413C156.441 242.564 152.991 244.317 149.883 246.603C145.776 249.662 142.346 253.577 139.82 258.093C138.336 260.696 137.154 263.469 136.3 266.355C135.402 269.491 134.886 272.73 134.761 275.996C134.679 277.712 134.707 279.431 134.845 281.144C134.845 282.011 135.08 282.878 135.191 283.76C135.284 284.649 135.447 285.529 135.676 286.391C136.922 292.097 139.451 297.425 143.061 301.951C146.671 306.476 151.261 310.074 156.466 312.456C160.233 314.124 164.271 315.055 168.372 315.201C172.607 315.44 176.847 314.816 180.846 313.366L182.066 312.897H182.232L182.371 312.982L199.848 322.083L199.335 322.538C197.464 316.594 195.662 310.835 193.916 305.303V305.09L194.068 304.934C198.308 300.552 201.456 295.187 203.244 289.292C204.863 283.902 205.336 278.219 204.63 272.626C204.001 267.655 202.444 262.856 200.042 258.491C197.972 254.742 195.301 251.377 192.142 248.537C189.535 246.29 186.651 244.406 183.562 242.934C181.226 241.901 178.792 241.114 176.3 240.588L173.528 240.119L171.518 239.963L170.298 239.877H169.883C170.021 239.861 170.16 239.861 170.298 239.877H171.532L173.542 239.963L176.314 240.375C178.837 240.863 181.304 241.62 183.673 242.636C186.815 244.09 189.751 245.969 192.405 248.224C195.622 251.051 198.35 254.417 200.472 258.178C202.942 262.59 204.547 267.454 205.198 272.498C205.963 278.177 205.523 283.959 203.909 289.448C202.109 295.466 198.913 300.946 194.595 305.417L194.678 305.047C196.425 310.579 198.24 316.338 200.125 322.268L200.389 323.135L199.598 322.723L182.121 313.636H182.426L181.179 314.106C177.102 315.577 172.784 316.215 168.469 315.983C164.28 315.819 160.158 314.854 156.314 313.139C148.981 309.917 142.881 304.317 138.947 297.198C137.137 293.91 135.815 290.363 135.025 286.675C134.808 285.791 134.646 284.893 134.54 283.988C134.429 283.092 134.249 282.21 134.207 281.328C133.832 276.269 134.353 271.181 135.745 266.312C136.621 263.387 137.835 260.579 139.363 257.951C141.949 253.394 145.45 249.454 149.633 246.39C152.793 244.098 156.301 242.358 160.014 241.242L162.19 240.674C162.831 240.521 163.478 240.402 164.131 240.318C165.142 240.126 166.166 240.012 167.194 239.977L169.093 239.906C169.309 239.876 169.526 239.862 169.744 239.863Z" fill="#070789"/>
<path d="M177.644 273.024H175.08L169.536 265.032V259.785C169.536 259.785 165.572 259.529 166.043 266.398C166.514 273.266 166.043 271.517 166.043 271.517C166.043 271.517 157.63 271.517 156.937 272.299C156.244 273.081 156.203 281.414 156.106 286.064C156.052 287.185 156.366 288.292 156.996 289.209C157.627 290.126 158.538 290.801 159.584 291.126C159.878 291.21 160.181 291.253 160.485 291.254C162.592 291.254 173.306 289.505 173.306 289.505H177.727L177.644 273.024Z" fill="#070789"/>
<path d="M184.976 271.616L183.396 289.59H179.016V271.986L184.976 271.616Z" fill="#070789"/>
<path d="M237.214 637.539V625.381L215.967 625.225L215.786 643.611L217.103 643.711C222.966 644.095 246.93 644.664 250.866 643.412C255.246 642.019 237.214 637.539 237.214 637.539Z" fill="#070789"/>
<path d="M251.365 642.275C251.365 642.474 243.409 642.644 233.61 642.644C223.811 642.644 215.855 642.474 215.855 642.275C215.855 642.076 223.811 641.905 233.61 641.905C243.409 641.905 251.365 642.076 251.365 642.275Z" fill="#263238"/>
<path d="M237.588 640.028C237.408 639.928 237.588 639.288 238.018 638.606C238.447 637.923 239.029 637.639 239.168 637.781C239.307 637.923 239.016 638.464 238.6 639.047C238.184 639.63 237.768 640.127 237.588 640.028Z" fill="#263238"/>
<path d="M238.946 640.824C238.752 640.824 238.849 640.028 239.265 639.274C239.681 638.521 240.235 638.066 240.387 638.179C240.54 638.293 240.29 638.933 239.902 639.601C239.514 640.27 239.126 640.895 238.946 640.824Z" fill="#263238"/>
<path d="M222.259 642.218C222.176 642.218 221.857 641.962 221.4 641.421C220.842 640.727 220.22 640.089 219.543 639.516C218.877 638.97 218.084 638.613 217.242 638.478C216.591 638.393 216.175 638.478 216.133 638.393C216.092 638.307 216.493 638.009 217.256 637.952C218.262 637.93 219.243 638.272 220.028 638.919C220.763 639.534 221.383 640.28 221.857 641.123C222.176 641.749 222.342 642.161 222.259 642.218Z" fill="#263238"/>
<path d="M237.657 637.739C237.754 637.909 237.394 638.336 236.784 638.563C236.174 638.791 235.634 638.705 235.606 638.563C235.578 638.421 236.008 638.122 236.535 637.923C237.061 637.724 237.546 637.568 237.657 637.739Z" fill="#263238"/>
<path d="M237.325 636.558C237.325 636.772 236.77 636.942 236.05 636.956C235.329 636.971 234.761 636.8 234.775 636.601C234.788 636.402 235.357 636.217 236.05 636.203C236.743 636.189 237.297 636.359 237.325 636.558Z" fill="#263238"/>
<path d="M289.536 637.539V625.381L268.288 625.225L268.108 643.427L269.425 643.526C275.287 643.91 299.265 644.664 303.188 643.412C307.567 642.019 289.536 637.539 289.536 637.539Z" fill="#070789"/>
<path d="M303.686 642.303C303.686 642.502 295.744 642.673 285.931 642.673C276.119 642.673 268.191 642.502 268.191 642.303C268.191 642.104 276.132 641.933 285.931 641.933C295.731 641.933 303.686 642.104 303.686 642.303Z" fill="#263238"/>
<path d="M289.91 640.028C289.743 639.928 289.91 639.288 290.339 638.606C290.769 637.923 291.351 637.639 291.49 637.781C291.628 637.923 291.337 638.464 290.921 639.047C290.506 639.63 290.09 640.127 289.91 640.028Z" fill="#263238"/>
<path d="M291.268 640.824C291.088 640.824 291.171 640.028 291.601 639.274C292.031 638.521 292.571 638.066 292.724 638.179C292.876 638.293 292.613 638.933 292.225 639.601C291.837 640.27 291.462 640.895 291.268 640.824Z" fill="#263238"/>
<path d="M274.58 642.218C274.497 642.218 274.192 641.962 273.721 641.421C273.163 640.727 272.541 640.089 271.864 639.516C271.198 638.97 270.405 638.613 269.563 638.478C268.926 638.393 268.496 638.478 268.454 638.393C268.413 638.307 268.815 638.009 269.577 637.952C270.583 637.93 271.564 638.272 272.349 638.919C273.088 639.53 273.709 640.277 274.179 641.123C274.497 641.749 274.664 642.161 274.58 642.218Z" fill="#263238"/>
<path d="M289.979 637.739C290.076 637.909 289.715 638.336 289.106 638.563C288.496 638.791 287.955 638.705 287.928 638.563C287.9 638.421 288.329 638.122 288.856 637.923C289.383 637.724 289.868 637.568 289.979 637.739Z" fill="#263238"/>
<path d="M289.674 636.558C289.674 636.772 289.119 636.942 288.399 636.956C287.678 636.971 287.124 636.8 287.137 636.601C287.151 636.402 287.706 636.217 288.399 636.203C289.092 636.189 289.674 636.359 289.674 636.558Z" fill="#263238"/>
<path d="M367.817 276.494C367.263 275.911 365.89 276.195 365.89 276.195C366.028 275.376 366.028 274.539 365.89 273.721C365.641 272.924 363.895 273.081 363.895 273.081C363.814 272.41 363.814 271.732 363.895 271.062C363.908 270.913 363.877 270.764 363.805 270.634C363.734 270.504 363.624 270.4 363.493 270.336C362.666 269.991 361.779 269.826 360.887 269.853C359.82 269.071 364.144 262.857 365.752 260.866C367.36 258.875 367.069 257.325 365.641 257.325C364.657 257.325 359.612 263.297 358.06 265.302C356.507 267.307 352.391 272.882 352.252 268.431C352.114 263.98 350.367 260.624 349.272 260.055C348.177 259.486 347.013 260.823 347.609 262.06C348.133 263.466 348.459 264.94 348.579 266.44C348.73 267.635 348.678 268.847 348.427 270.024C347.967 272.213 347.342 274.362 346.556 276.451H346.445C346.445 276.451 316.202 306.213 314.012 308.332C312.058 310.238 272.751 306.071 264.865 305.218C262.185 304.816 259.479 304.626 256.771 304.649C253.347 304.806 252.737 305.303 249.328 305.346C240.717 305.444 232.127 306.219 223.631 307.664C219.785 308.335 216.192 310.077 213.244 312.7C210.296 315.323 208.107 318.726 206.916 322.538C198.974 347.992 180.984 408.242 177.81 442.086C175.412 446.548 173.247 451.138 171.324 455.836C169.092 462.065 169.633 462.278 170.381 462.42C172.405 462.804 174.706 451.627 175.565 454.329C176.424 457.031 171.199 467.653 173.32 467.966C176.092 468.364 178.295 456.59 178.559 455.651C178.822 454.713 180.194 455.011 179.945 455.893C179.543 457.144 175.648 470.412 178.365 470.838C179.862 471.066 180.028 468.264 180.028 468.264C180.028 468.264 182.8 455.566 184.061 455.822C185.322 456.078 183.978 463.572 183.34 466.075C182.703 468.577 183.59 469.843 184.893 469.231C185.78 468.805 187.9 461.197 188.482 458.723C189.065 456.249 190.52 449.395 192.474 453.362C194.428 457.329 197.394 459.633 198.614 459.69C198.889 459.657 199.148 459.541 199.358 459.356C199.568 459.172 199.719 458.926 199.792 458.653C199.865 458.379 199.857 458.089 199.768 457.82C199.679 457.551 199.514 457.316 199.293 457.145C198.244 456.093 197.344 454.897 196.618 453.589C195.972 452.571 195.503 451.445 195.232 450.262C194.674 447.903 194.349 445.492 194.262 443.067L194.04 441.645C197.145 425.875 206.085 379.589 218.988 350.025L224.283 361.202L226.584 369.478L212.474 405.213L272.654 404.403L263.673 368.938L274.581 331.966C286.376 332.236 316.66 332.691 321.705 330.345C328.053 327.501 360.887 284.955 360.887 284.955C363.027 283.248 365.077 281.425 367.027 279.494C367.027 279.494 369.023 277.773 367.817 276.494Z" fill="#FFBE9D"/>
<path d="M209.826 378.807C211.573 372.692 220.54 342.46 220.54 342.46C220.54 342.46 224.948 367.104 223.783 370.075C222.713 372.62 221.447 375.073 220 377.413C209.826 393.297 211.157 401.246 211.157 401.246L272.626 399.326C272.765 390.51 267.678 370.004 266.625 366.734C265.571 363.463 269.078 352.756 269.078 352.756C269.078 352.756 276.008 345.518 275.758 341.792C275.627 338.445 275.223 335.116 274.553 331.838L311.975 333.26L310.797 307.237L257.047 301.72C255.176 307.138 238.253 304.479 238.253 304.479C219.986 305.104 218.849 308.546 211.254 314.603C203.659 320.661 191.088 372.649 191.088 372.649L209.826 378.807Z" fill="#070789"/>
<path d="M246.167 372.649C245.102 372.845 244.017 372.902 242.938 372.82C240.928 372.82 238.17 372.678 235.135 372.365C232.099 372.052 229.355 371.611 227.401 371.213C226.323 371.071 225.267 370.794 224.255 370.388C225.338 370.389 226.419 370.493 227.484 370.701C229.452 370.957 232.183 371.313 235.204 371.625C238.226 371.938 240.97 372.152 242.952 372.294C244.032 372.308 245.109 372.427 246.167 372.649Z" fill="#263238"/>
<path d="M250.381 367.288C249.315 367.824 248.188 368.22 247.027 368.469C241.497 369.959 235.792 370.653 230.076 370.53C228.893 370.57 227.71 370.455 226.555 370.189C227.723 370.038 228.899 369.976 230.076 370.004C232.252 369.933 235.246 369.777 238.544 369.379C241.843 368.98 244.781 368.412 246.86 367.957C248.015 367.64 249.192 367.417 250.381 367.288Z" fill="#263238"/>
<path d="M271.06 343.37C271.032 344.454 270.888 345.532 270.631 346.584C270.27 348.561 269.716 351.262 269.009 354.22C268.302 357.178 267.623 359.908 267.013 361.757C266.768 362.815 266.405 363.841 265.932 364.814C266.009 363.733 266.204 362.665 266.514 361.629C267.041 359.41 267.637 356.851 268.302 354.05C268.967 351.248 269.605 348.689 270.132 346.47C270.319 345.403 270.631 344.362 271.06 343.37Z" fill="#263238"/>
<path d="M210.478 375.18C207.272 374.672 204.107 373.917 201.012 372.919C197.849 372.161 194.745 371.163 191.725 369.933C194.93 370.45 198.094 371.205 201.192 372.194C204.356 372.95 207.46 373.949 210.478 375.18Z" fill="#263238"/>
<path d="M275.218 331.525C274.695 331.617 274.16 331.617 273.637 331.525C272.19 331.373 270.768 331.024 269.41 330.487C267.143 329.613 265.079 328.262 263.351 326.521C261.623 324.779 260.268 322.687 259.376 320.377C258.389 317.835 257.967 315.1 258.142 312.371C258.204 310.119 258.86 307.927 260.041 306.029C260.871 304.749 262.112 303.809 263.547 303.369C263.931 303.261 264.328 303.208 264.726 303.213C265.003 303.213 265.141 303.213 265.141 303.213C265.141 303.213 264.559 303.213 263.631 303.597C262.314 304.096 261.197 305.032 260.457 306.256C258.572 309.299 258.045 314.859 260.055 320.05C260.99 322.497 262.454 324.694 264.337 326.477C265.88 327.936 267.658 329.109 269.59 329.947C271.404 330.682 273.291 331.211 275.218 331.525Z" fill="#263238"/>
<path d="M307.526 332.748C307.179 328.387 307.068 324.01 307.193 319.637C307.084 315.268 307.214 310.895 307.581 306.54C307.928 310.896 308.039 315.269 307.914 319.637C308.03 324.011 307.901 328.389 307.526 332.748Z" fill="#263238"/>
<path d="M256.687 303.313C256.84 300.141 257.158 296.558 257.158 296.558C257.158 296.558 264.809 295.691 265.266 287.585C265.724 279.48 265.266 260.781 265.266 260.781L251.406 253.5L236.022 265.914L238.392 306.441L252.501 307.365C253.58 307.396 254.626 306.986 255.411 306.227C256.196 305.467 256.654 304.419 256.687 303.313Z" fill="#FFBE9D"/>
<path d="M258.06 281.172C258.06 281.172 258.06 281.328 257.935 281.513C257.832 281.647 257.698 281.754 257.546 281.823C257.394 281.892 257.228 281.923 257.062 281.911C256.175 281.911 255.315 280.859 255.01 279.636C254.866 279.043 254.866 278.423 255.01 277.83C255.039 277.572 255.13 277.324 255.275 277.111C255.42 276.897 255.615 276.724 255.842 276.607C256.028 276.528 256.238 276.528 256.424 276.607C256.562 276.678 256.674 276.793 256.743 276.934C256.84 277.176 256.743 277.333 256.743 277.318C256.743 277.304 256.743 277.176 256.604 277.034C256.532 276.932 256.425 276.861 256.305 276.835C256.185 276.809 256.06 276.829 255.953 276.892C255.783 276.997 255.642 277.145 255.542 277.322C255.443 277.498 255.389 277.698 255.385 277.901C255.268 278.43 255.268 278.979 255.385 279.508C255.662 280.617 256.41 281.513 257.076 281.599C257.206 281.617 257.338 281.607 257.465 281.57C257.591 281.534 257.709 281.471 257.81 281.385C257.976 281.272 258.032 281.158 258.06 281.172Z" fill="#EB996E"/>
<path d="M270.021 256.401C268.953 252.675 265.086 250.826 261.566 249.803C256.202 248.238 250.409 247.556 245.17 249.532C239.93 251.509 233.638 254.979 233.638 260.908C230.547 260.653 228.773 263.425 227.553 266.867C226.774 268.963 226.306 271.168 226.167 273.408C225.779 281.172 223.659 291.894 218.752 297.582C215.98 300.753 212.141 302.943 210.561 306.896C209.175 310.323 209.896 314.39 208.607 317.86C207.456 320.917 204.92 323.093 203.063 325.752C201.171 328.768 200.057 332.229 199.827 335.808C199.597 339.388 200.257 342.969 201.746 346.214C203.246 349.377 205.358 352.193 207.953 354.491C210.548 356.789 213.571 358.521 216.84 359.581C223.314 361.602 230.218 361.671 236.729 359.78C241.616 358.581 246.174 356.262 250.062 352.997C254.04 349.664 256.773 345.022 257.796 339.858C258.78 334.056 257.2 328.155 256.022 322.382C252.335 304.137 253.389 303.185 258.045 286.249C258.156 285.95 258.212 285.637 258.295 285.338C258.378 285.04 258.42 284.898 258.475 284.67C258.607 284.001 258.677 283.32 258.683 282.637C258.003 282.896 257.265 282.951 256.555 282.795C255.845 282.639 255.194 282.278 254.678 281.755C254.16 281.197 253.799 280.506 253.633 279.755C253.467 279.004 253.502 278.221 253.735 277.489C254.062 276.688 254.549 275.967 255.165 275.372C255.781 274.776 256.512 274.321 257.311 274.034C258.849 273.379 260.499 273.038 262.009 272.313C265.211 270.749 267.429 267.507 268.939 264.108C270.182 261.752 270.565 259.02 270.021 256.401Z" fill="#263238"/>
<path d="M258.614 281.556C258.907 282 259.148 282.477 259.335 282.978C259.75 283.874 260.305 285.139 260.915 286.604L261.025 286.874H260.734L259.348 287.002C258.392 287.002 257.588 287.187 256.646 287.173C256.564 287.154 256.488 287.114 256.425 287.057C256.362 287 256.314 286.927 256.285 286.846C256.244 286.716 256.244 286.577 256.285 286.448C256.317 286.256 256.359 286.066 256.41 285.879L256.66 284.869C256.785 284.196 256.98 283.538 257.242 282.907C257.216 283.593 257.118 284.275 256.951 284.94L256.757 285.95C256.687 286.291 256.563 286.817 256.757 286.775C257.45 286.775 258.434 286.618 259.348 286.561L260.734 286.433L260.554 286.746C259.958 285.324 259.459 283.988 259.168 283.063C258.913 282.591 258.726 282.083 258.614 281.556Z" fill="#FD7401"/>
<path d="M211.157 401.246L272.626 399.326L299.376 506.46L294.456 629.349H261.954L265.932 509.076L242.162 434.492L245.821 634.112L212.973 634.61L209.521 446.977C209.369 441.758 207.706 429.999 208.33 424.822L211.157 401.246Z" fill="#F5F8F9"/>
<path d="M250.34 436.014C249.334 436.079 248.323 436.016 247.332 435.829C245.475 435.601 242.938 435.203 240.153 434.634C237.367 434.065 234.872 433.411 233.07 432.885C232.107 432.668 231.175 432.324 230.298 431.861C230.298 431.648 234.816 432.757 240.36 433.909C245.904 435.061 250.367 435.8 250.34 436.014Z" fill="#455A64"/>
<path d="M294.123 622.608C294.123 622.808 286.764 622.978 277.685 622.978C268.607 622.978 261.234 622.808 261.234 622.608C261.234 622.409 268.593 622.239 277.685 622.239C286.778 622.239 294.123 622.395 294.123 622.608Z" fill="#455A64"/>
<path d="M245.53 628.922C245.53 629.135 238.378 629.292 229.563 629.292C220.748 629.292 213.61 629.135 213.61 628.922C213.61 628.709 220.762 628.552 229.563 628.552C238.364 628.552 245.53 628.723 245.53 628.922Z" fill="#455A64"/>
<path d="M241.288 628.41C241.094 628.41 240.235 584.797 239.362 531.003C238.489 477.209 237.976 433.568 238.156 433.568C238.336 433.568 239.223 477.166 240.083 530.989C240.942 584.812 241.496 628.41 241.288 628.41Z" fill="#455A64"/>
<path d="M289.757 622.608C289.742 622.414 289.742 622.219 289.757 622.025V620.319C289.757 618.783 289.868 616.579 289.951 613.778C290.145 608.09 290.422 599.828 290.769 589.703C291.517 569.34 292.571 541.27 293.721 510.285C293.721 509.986 293.721 509.702 293.721 509.446V509.545C286.445 479.683 279.861 452.58 275.079 432.97L269.535 409.778C268.898 407.062 268.413 404.943 268.066 403.464C267.9 402.767 267.789 402.227 267.692 401.814C267.638 401.629 267.605 401.439 267.595 401.246C267.667 401.425 267.723 401.611 267.761 401.8C267.872 402.198 268.011 402.739 268.205 403.421C268.579 404.843 269.12 407.005 269.813 409.707C271.199 415.195 273.153 423.102 275.592 432.843C280.415 452.438 287.068 479.47 294.442 509.375V509.474C294.442 509.73 294.442 510.029 294.442 510.313C293.208 541.298 292.086 569.354 291.268 589.718C290.838 599.856 290.478 608.061 290.228 613.778C290.09 616.622 289.979 618.783 289.91 620.319C289.91 621.044 289.826 621.613 289.813 622.025C289.815 622.221 289.796 622.417 289.757 622.608Z" fill="#455A64"/>
<path d="M279.154 506.943C276.82 507.73 274.415 508.278 271.975 508.578C268.981 509.104 266.431 509.474 265.28 509.531V509.247C265.655 509.36 265.849 509.431 265.849 509.488C265.849 509.545 265.613 509.488 265.225 509.488H264.393L265.225 509.232C266.306 508.905 268.856 508.365 271.85 507.81C274.251 507.276 276.698 506.985 279.154 506.943Z" fill="#455A64"/>
<path d="M278.586 511.024C276.424 511.126 274.257 511.026 272.113 510.725C269.948 510.68 267.791 510.437 265.668 510C270 509.638 274.36 509.983 278.586 511.024Z" fill="#455A64"/>
<path opacity="0.2" d="M210.894 403.507C211.622 404.466 212.539 405.257 213.585 405.827C214.631 406.398 215.782 406.737 216.964 406.82C219.44 407.121 221.944 407.073 224.407 406.678C240.277 404.872 257.089 403.208 272.626 399.326C252.515 400.478 231.268 400.094 211.157 401.246L210.949 403.009" fill="black"/>
<g opacity="0.2">
<path d="M231.614 432.587L242.952 477.721L242.162 434.492L231.614 432.587Z" fill="black"/>
</g>
</svg>
